<svg xmlns="http://www.w3.org/2000/svg" width="196.678" height="30.27" viewBox="0 0 196.678 30.27">
  <g id="Group_61" data-name="Group 61" transform="translate(-681.652 -497.052)">
    <g id="Group_59" data-name="Group 59" transform="translate(736.553 507.649)">
      <g id="Group_51" data-name="Group 51" transform="translate(58.806 0.009)">
        <g id="Group_50" data-name="Group 50">
          <path id="Path_35" data-name="Path 35" d="M1013.185,546.659a2.654,2.654,0,0,1-2.348-1.416l-7.554-14.327a2.654,2.654,0,1,1,4.7-2.476l5.206,9.874,5.207-9.874a2.654,2.654,0,1,1,4.7,2.476l-7.554,14.327A2.655,2.655,0,0,1,1013.185,546.659Z" transform="translate(-1002.977 -527.023)" fill="#18527d"/>
        </g>
      </g>
      <g id="Group_52" data-name="Group 52" transform="translate(19.375 0)">
        <path id="Path_36" data-name="Path 36" d="M901.386,546.67a9.837,9.837,0,1,1,9.837-9.837A9.848,9.848,0,0,1,901.386,546.67Zm0-14.365a4.529,4.529,0,1,0,4.529,4.528A4.534,4.534,0,0,0,901.386,532.305Z" transform="translate(-891.549 -526.997)" fill="#18527d"/>
      </g>
      <g id="Group_53" data-name="Group 53" transform="translate(78.793 0)">
        <path id="Path_37" data-name="Path 37" d="M1069.3,546.67a9.837,9.837,0,1,1,9.837-9.837A9.848,9.848,0,0,1,1069.3,546.67Zm0-14.365a4.529,4.529,0,1,0,4.529,4.528A4.534,4.534,0,0,0,1069.3,532.305Z" transform="translate(-1059.459 -526.997)" fill="#18527d"/>
      </g>
      <g id="Group_54" data-name="Group 54" transform="translate(122.103 0)">
        <path id="Path_38" data-name="Path 38" d="M1191.685,546.67a9.837,9.837,0,1,1,9.837-9.837A9.848,9.848,0,0,1,1191.685,546.67Zm0-14.365a4.529,4.529,0,1,0,4.529,4.528A4.534,4.534,0,0,0,1191.685,532.305Z" transform="translate(-1181.848 -526.997)" fill="#18527d"/>
      </g>
      <g id="Group_55" data-name="Group 55" transform="translate(114.849 0.002)">
        <path id="Path_39" data-name="Path 39" d="M1164,546.675a2.654,2.654,0,0,1-2.654-2.654V529.658a2.654,2.654,0,1,1,5.308,0v14.363A2.654,2.654,0,0,1,1164,546.675Z" transform="translate(-1161.349 -527.004)" fill="#18527d"/>
      </g>
      <path id="Path_40" data-name="Path 40" d="M1127.071,534.193c-.09-.009-.18-.014-.272-.014a.937.937,0,1,1,0-1.874.919.919,0,0,1,.483.133,2.654,2.654,0,0,0,2.753-4.538,6.243,6.243,0,1,0-3.508,11.574c.089.009.18.013.272.013a.937.937,0,1,1-.739,1.514,2.654,2.654,0,0,0-4.175,3.279,6.244,6.244,0,1,0,5.186-10.087Z" transform="translate(-1020.141 -526.997)" fill="#18527d"/>
      <g id="Group_57" data-name="Group 57" transform="translate(0 0)">
        <g id="Group_56" data-name="Group 56">
          <path id="Path_41" data-name="Path 41" d="M846.635,546.67a9.837,9.837,0,1,1,7.622-16.048,2.654,2.654,0,1,1-4.114,3.354,4.528,4.528,0,1,0,0,5.715,2.654,2.654,0,1,1,4.114,3.354A9.8,9.8,0,0,1,846.635,546.67Z" transform="translate(-836.798 -526.997)" fill="#18527d"/>
        </g>
      </g>
      <g id="Group_58" data-name="Group 58" transform="translate(40.994 0.01)">
        <path id="Path_42" data-name="Path 42" d="M967.574,546.66a2.654,2.654,0,0,1-2.654-2.654v-8.581a3.1,3.1,0,0,0-3.092-3.092h-3.877v11.673a2.654,2.654,0,0,1-5.308,0V529.679a2.654,2.654,0,0,1,2.654-2.654h6.531a8.41,8.41,0,0,1,8.4,8.4v8.581A2.654,2.654,0,0,1,967.574,546.66Z" transform="translate(-952.643 -527.025)" fill="#18527d"/>
      </g>
    </g>
    <g id="Group_60" data-name="Group 60" transform="translate(681.652 497.052)">
      <path id="Path_43" data-name="Path 43" d="M754.475,514.644h-1.757l-13.889.006a4.858,4.858,0,0,0-3.457,1.433,4.919,4.919,0,0,0-.334.37l7.876,0a11.127,11.127,0,0,1,10.66,7.968l5.792,0,0-4.89A4.9,4.9,0,0,0,754.475,514.644Z" transform="translate(-716.146 -508.418)" fill="none"/>
      <path id="Path_44" data-name="Path 44" d="M743,537.355l-7.826,0a4.881,4.881,0,0,0,3.745,1.751h0l7.82,0c-.09-.107-.184-.211-.284-.311A4.857,4.857,0,0,0,743,537.355Z" transform="translate(-716.234 -523.091)" fill="none"/>
      <path id="Path_45" data-name="Path 45" d="M715.709,545.323a11.133,11.133,0,0,1-10.662-7.979h-.9a4.9,4.9,0,0,0-4.89,4.888l0,4.89,20.534.007h0a4.858,4.858,0,0,0,3.457-1.431,5.059,5.059,0,0,0,.341-.379l-7.873,0Z" transform="translate(-693.024 -523.086)" fill="none"/>
      <path id="Path_46" data-name="Path 46" d="M740.912,519.762l-7.876,0a4.885,4.885,0,0,0,.048,6.226l7.826,0a4.858,4.858,0,0,1,3.457,1.434q.15.15.284.311l6.921,0a11.127,11.127,0,0,0-10.66-7.968Z" transform="translate(-714.144 -511.724)" fill="#0e6ca0"/>
      <path id="Path_47" data-name="Path 47" d="M711.872,560.259a4.858,4.858,0,0,1-3.457,1.431h0l-20.534-.007v6.223h-6.228l26.76.01h0a11.123,11.123,0,0,0,10.684-8.038l-6.886,0A5.073,5.073,0,0,1,711.872,560.259Z" transform="translate(-681.652 -537.646)" fill="#0087e2"/>
      <path id="Path_48" data-name="Path 48" d="M687.885,535.755l0-4.891a4.9,4.9,0,0,1,4.89-4.888h.9a11.124,11.124,0,0,1-.018-6.226h-.884a11.129,11.129,0,0,0-11.116,11.112l0,4.888h6.226Z" transform="translate(-681.656 -511.719)" fill="#00b4e5"/>
      <path id="Path_49" data-name="Path 49" d="M726.289,539.1a4.881,4.881,0,0,1-3.745-1.751l-6.917,0a11.133,11.133,0,0,0,10.662,7.979h0l7.873,0a4.889,4.889,0,0,0-.055-6.226l-7.82,0Z" transform="translate(-703.604 -523.087)" fill="#ffbe1d"/>
      <path id="Path_50" data-name="Path 50" d="M722.8,504.722a4.859,4.859,0,0,1,3.457-1.434l13.889-.006a4.888,4.888,0,0,0-.052-6.223l-13.839,0a11.124,11.124,0,0,0-10.677,8.027l6.887,0A4.906,4.906,0,0,1,722.8,504.722Z" transform="translate(-703.571 -497.057)" fill="#ffbe1d"/>
      <path id="Path_51" data-name="Path 51" d="M774.783,542.284l-6.921,0a4.889,4.889,0,0,1,.055,6.226l6.886,0a11.194,11.194,0,0,0-.019-6.226Z" transform="translate(-737.355 -526.278)" fill="#103254"/>
      <path id="Path_52" data-name="Path 52" d="M714.8,525.978l6.917,0a4.885,4.885,0,0,1-.048-6.226l-6.887,0a11.123,11.123,0,0,0,.018,6.226Z" transform="translate(-702.776 -511.719)" fill="#18527d"/>
      <path id="Path_53" data-name="Path 53" d="M687.88,564.969v0h-6.226l0,6.228h6.228Z" transform="translate(-681.652 -540.932)" fill="#0e6ca0"/>
      <path id="Path_54" data-name="Path 54" d="M799.439,542.286l-6.226-.008-5.792,0a11.193,11.193,0,0,1,.019,6.226l12,0Z" transform="translate(-749.993 -526.274)" fill="#18527d"/>
      <path id="Path_55" data-name="Path 55" d="M784.905,503.278h1.757a4.9,4.9,0,0,1,4.89,4.888l0,4.89,6.226.008,0-4.9a11.128,11.128,0,0,0-11.116-11.112h-.9v0h-.91a4.889,4.889,0,0,1,.052,6.223Z" transform="translate(-748.333 -497.052)" fill="#0e6ca0"/>
    </g>
  </g>
</svg>